<mxfile host="app.diagrams.net" modified="2022-10-31T06:59:05.169Z" agent="5.0 (Windows NT 6.1; Win64; x64) AppleWebKit/537.36 (KHTML, like Gecko) Chrome/106.0.0.0 Safari/537.36" etag="cOnqLPeCRbDcPasBI3NQ" version="20.5.1" type="github">
  <diagram id="_SCIKSvTVZAReXezCKt8" name="第 1 页">
    <mxGraphModel dx="1695" dy="450" grid="0" gridSize="10" guides="1" tooltips="1" connect="1" arrows="1" fold="1" page="1" pageScale="1" pageWidth="827" pageHeight="1169" math="0" shadow="0">
      <root>
        <mxCell id="0" />
        <mxCell id="1" parent="0" />
        <mxCell id="3Cpc0HWWFPvoYlna3Dm2-43" value="" style="rounded=0;whiteSpace=wrap;html=1;" vertex="1" parent="1">
          <mxGeometry x="904" y="1647" width="517" height="121" as="geometry" />
        </mxCell>
        <mxCell id="I1Czxmr3QRIqjWYr_f1q-85" value="" style="rounded=0;whiteSpace=wrap;html=1;" parent="1" vertex="1">
          <mxGeometry x="920" y="974" width="848" height="527" as="geometry" />
        </mxCell>
        <mxCell id="I1Czxmr3QRIqjWYr_f1q-75" value="DNS" style="rounded=0;whiteSpace=wrap;html=1;" parent="1" vertex="1">
          <mxGeometry x="1302" y="1054" width="58" height="424" as="geometry" />
        </mxCell>
        <mxCell id="I1Czxmr3QRIqjWYr_f1q-80" value="" style="rounded=0;whiteSpace=wrap;html=1;" parent="1" vertex="1">
          <mxGeometry x="1458" y="1059" width="287" height="418" as="geometry" />
        </mxCell>
        <mxCell id="I1Czxmr3QRIqjWYr_f1q-78" value="" style="rounded=0;whiteSpace=wrap;html=1;" parent="1" vertex="1">
          <mxGeometry x="982" y="1052" width="240" height="422.5" as="geometry" />
        </mxCell>
        <mxCell id="I1Czxmr3QRIqjWYr_f1q-1" value="" style="rounded=0;whiteSpace=wrap;html=1;" parent="1" vertex="1">
          <mxGeometry x="-1" y="1016" width="615" height="635" as="geometry" />
        </mxCell>
        <mxCell id="I1Czxmr3QRIqjWYr_f1q-2" value="" style="rounded=0;whiteSpace=wrap;html=1;" parent="1" vertex="1">
          <mxGeometry x="-303" y="1099" width="264" height="514" as="geometry" />
        </mxCell>
        <mxCell id="I1Czxmr3QRIqjWYr_f1q-3" style="edgeStyle=orthogonalEdgeStyle;curved=1;rounded=0;orthogonalLoop=1;jettySize=auto;html=1;entryX=0;entryY=0.25;entryDx=0;entryDy=0;" parent="1" source="I1Czxmr3QRIqjWYr_f1q-4" target="I1Czxmr3QRIqjWYr_f1q-59" edge="1">
          <mxGeometry relative="1" as="geometry" />
        </mxCell>
        <mxCell id="I1Czxmr3QRIqjWYr_f1q-88" style="edgeStyle=orthogonalEdgeStyle;curved=1;rounded=0;orthogonalLoop=1;jettySize=auto;html=1;entryX=1;entryY=0.75;entryDx=0;entryDy=0;exitX=0.5;exitY=1;exitDx=0;exitDy=0;" parent="1" source="I1Czxmr3QRIqjWYr_f1q-4" target="I1Czxmr3QRIqjWYr_f1q-87" edge="1">
          <mxGeometry relative="1" as="geometry" />
        </mxCell>
        <mxCell id="I1Czxmr3QRIqjWYr_f1q-89" value="消息回执：http请求（业务标识+消息ID+token）" style="edgeLabel;html=1;align=center;verticalAlign=middle;resizable=0;points=[];" parent="I1Czxmr3QRIqjWYr_f1q-88" vertex="1" connectable="0">
          <mxGeometry x="0.3414" y="3" relative="1" as="geometry">
            <mxPoint as="offset" />
          </mxGeometry>
        </mxCell>
        <mxCell id="I1Czxmr3QRIqjWYr_f1q-4" value="" style="rounded=0;whiteSpace=wrap;html=1;" parent="1" vertex="1">
          <mxGeometry x="397" y="1044" width="165" height="491" as="geometry" />
        </mxCell>
        <mxCell id="I1Czxmr3QRIqjWYr_f1q-5" style="edgeStyle=orthogonalEdgeStyle;curved=1;rounded=0;orthogonalLoop=1;jettySize=auto;html=1;exitX=1;exitY=0.5;exitDx=0;exitDy=0;entryX=0;entryY=0.5;entryDx=0;entryDy=0;" parent="1" source="I1Czxmr3QRIqjWYr_f1q-11" target="I1Czxmr3QRIqjWYr_f1q-43" edge="1">
          <mxGeometry relative="1" as="geometry">
            <Array as="points">
              <mxPoint x="320" y="1337" />
              <mxPoint x="320" y="1135" />
            </Array>
          </mxGeometry>
        </mxCell>
        <mxCell id="I1Czxmr3QRIqjWYr_f1q-6" style="edgeStyle=orthogonalEdgeStyle;curved=1;rounded=0;orthogonalLoop=1;jettySize=auto;html=1;entryX=0;entryY=0.5;entryDx=0;entryDy=0;" parent="1" source="I1Czxmr3QRIqjWYr_f1q-11" target="I1Czxmr3QRIqjWYr_f1q-44" edge="1">
          <mxGeometry relative="1" as="geometry" />
        </mxCell>
        <mxCell id="I1Czxmr3QRIqjWYr_f1q-7" style="edgeStyle=orthogonalEdgeStyle;curved=1;rounded=0;orthogonalLoop=1;jettySize=auto;html=1;entryX=0;entryY=0.5;entryDx=0;entryDy=0;" parent="1" source="I1Czxmr3QRIqjWYr_f1q-11" target="I1Czxmr3QRIqjWYr_f1q-45" edge="1">
          <mxGeometry relative="1" as="geometry" />
        </mxCell>
        <mxCell id="I1Czxmr3QRIqjWYr_f1q-8" style="edgeStyle=orthogonalEdgeStyle;curved=1;rounded=0;orthogonalLoop=1;jettySize=auto;html=1;entryX=0;entryY=0.5;entryDx=0;entryDy=0;" parent="1" source="I1Czxmr3QRIqjWYr_f1q-11" target="I1Czxmr3QRIqjWYr_f1q-53" edge="1">
          <mxGeometry relative="1" as="geometry" />
        </mxCell>
        <mxCell id="I1Czxmr3QRIqjWYr_f1q-9" style="edgeStyle=orthogonalEdgeStyle;curved=1;rounded=0;orthogonalLoop=1;jettySize=auto;html=1;entryX=0;entryY=0.5;entryDx=0;entryDy=0;" parent="1" source="I1Czxmr3QRIqjWYr_f1q-11" target="I1Czxmr3QRIqjWYr_f1q-54" edge="1">
          <mxGeometry relative="1" as="geometry">
            <Array as="points">
              <mxPoint x="316" y="1337" />
              <mxPoint x="316" y="1486" />
            </Array>
          </mxGeometry>
        </mxCell>
        <mxCell id="I1Czxmr3QRIqjWYr_f1q-11" value="" style="rounded=0;whiteSpace=wrap;html=1;" parent="1" vertex="1">
          <mxGeometry x="71" y="1126" width="182" height="422" as="geometry" />
        </mxCell>
        <mxCell id="I1Czxmr3QRIqjWYr_f1q-12" value="DNS" style="rounded=0;whiteSpace=wrap;html=1;" parent="1" vertex="1">
          <mxGeometry x="540" y="20" width="120" height="860" as="geometry" />
        </mxCell>
        <mxCell id="I1Czxmr3QRIqjWYr_f1q-13" value="" style="rounded=0;whiteSpace=wrap;html=1;" parent="1" vertex="1">
          <mxGeometry y="20" width="520" height="860" as="geometry" />
        </mxCell>
        <mxCell id="I1Czxmr3QRIqjWYr_f1q-14" style="edgeStyle=orthogonalEdgeStyle;rounded=0;orthogonalLoop=1;jettySize=auto;html=1;exitX=1;exitY=0.5;exitDx=0;exitDy=0;" parent="1" source="I1Czxmr3QRIqjWYr_f1q-15" target="I1Czxmr3QRIqjWYr_f1q-22" edge="1">
          <mxGeometry relative="1" as="geometry">
            <Array as="points">
              <mxPoint x="410" y="200" />
              <mxPoint x="410" y="270" />
            </Array>
          </mxGeometry>
        </mxCell>
        <mxCell id="I1Czxmr3QRIqjWYr_f1q-15" value="base" style="whiteSpace=wrap;html=1;aspect=fixed;" parent="1" vertex="1">
          <mxGeometry x="50" y="160" width="80" height="80" as="geometry" />
        </mxCell>
        <mxCell id="I1Czxmr3QRIqjWYr_f1q-16" style="edgeStyle=orthogonalEdgeStyle;rounded=0;orthogonalLoop=1;jettySize=auto;html=1;entryX=1;entryY=0.5;entryDx=0;entryDy=0;dashed=1;exitX=0.5;exitY=1;exitDx=0;exitDy=0;" parent="1" source="I1Czxmr3QRIqjWYr_f1q-22" target="I1Czxmr3QRIqjWYr_f1q-41" edge="1">
          <mxGeometry relative="1" as="geometry">
            <Array as="points">
              <mxPoint x="828" y="755" />
            </Array>
          </mxGeometry>
        </mxCell>
        <mxCell id="I1Czxmr3QRIqjWYr_f1q-17" value="异步回调" style="edgeLabel;html=1;align=center;verticalAlign=middle;resizable=0;points=[];" parent="I1Czxmr3QRIqjWYr_f1q-16" vertex="1" connectable="0">
          <mxGeometry x="0.2622" y="-1" relative="1" as="geometry">
            <mxPoint as="offset" />
          </mxGeometry>
        </mxCell>
        <mxCell id="I1Czxmr3QRIqjWYr_f1q-18" style="edgeStyle=orthogonalEdgeStyle;rounded=0;orthogonalLoop=1;jettySize=auto;html=1;entryX=0;entryY=0.5;entryDx=0;entryDy=0;curved=1;exitX=0.5;exitY=0;exitDx=0;exitDy=0;" parent="1" source="I1Czxmr3QRIqjWYr_f1q-22" target="I1Czxmr3QRIqjWYr_f1q-39" edge="1">
          <mxGeometry relative="1" as="geometry">
            <mxPoint x="967" y="354" as="sourcePoint" />
          </mxGeometry>
        </mxCell>
        <mxCell id="I1Czxmr3QRIqjWYr_f1q-19" value="请求" style="edgeLabel;html=1;align=center;verticalAlign=middle;resizable=0;points=[];" parent="I1Czxmr3QRIqjWYr_f1q-18" vertex="1" connectable="0">
          <mxGeometry x="-0.041" relative="1" as="geometry">
            <mxPoint as="offset" />
          </mxGeometry>
        </mxCell>
        <mxCell id="I1Czxmr3QRIqjWYr_f1q-20" style="rounded=0;orthogonalLoop=1;jettySize=auto;html=1;exitX=0;exitY=0.75;exitDx=0;exitDy=0;dashed=1;" parent="1" source="I1Czxmr3QRIqjWYr_f1q-22" edge="1">
          <mxGeometry relative="1" as="geometry">
            <mxPoint x="410" y="294" as="targetPoint" />
          </mxGeometry>
        </mxCell>
        <mxCell id="I1Czxmr3QRIqjWYr_f1q-21" value="同步响应" style="edgeLabel;html=1;align=center;verticalAlign=middle;resizable=0;points=[];" parent="I1Czxmr3QRIqjWYr_f1q-20" vertex="1" connectable="0">
          <mxGeometry x="0.1002" y="3" relative="1" as="geometry">
            <mxPoint x="-82" y="-2" as="offset" />
          </mxGeometry>
        </mxCell>
        <mxCell id="I1Czxmr3QRIqjWYr_f1q-22" value="Middle_SVC" style="whiteSpace=wrap;html=1;aspect=fixed;" parent="1" vertex="1">
          <mxGeometry x="788" y="231" width="80" height="80" as="geometry" />
        </mxCell>
        <mxCell id="I1Czxmr3QRIqjWYr_f1q-25" style="edgeStyle=orthogonalEdgeStyle;rounded=0;orthogonalLoop=1;jettySize=auto;html=1;exitX=1;exitY=0.5;exitDx=0;exitDy=0;entryX=0;entryY=0.5;entryDx=0;entryDy=0;" parent="1" source="I1Czxmr3QRIqjWYr_f1q-26" target="I1Czxmr3QRIqjWYr_f1q-22" edge="1">
          <mxGeometry relative="1" as="geometry">
            <Array as="points">
              <mxPoint x="410" y="337" />
              <mxPoint x="410" y="270" />
            </Array>
          </mxGeometry>
        </mxCell>
        <mxCell id="I1Czxmr3QRIqjWYr_f1q-68" value="http请求" style="edgeLabel;html=1;align=center;verticalAlign=middle;resizable=0;points=[];" parent="I1Czxmr3QRIqjWYr_f1q-25" vertex="1" connectable="0">
          <mxGeometry x="0.0677" relative="1" as="geometry">
            <mxPoint as="offset" />
          </mxGeometry>
        </mxCell>
        <mxCell id="I1Czxmr3QRIqjWYr_f1q-26" value="Msg" style="whiteSpace=wrap;html=1;aspect=fixed;" parent="1" vertex="1">
          <mxGeometry x="50" y="297" width="80" height="80" as="geometry" />
        </mxCell>
        <mxCell id="I1Czxmr3QRIqjWYr_f1q-27" value="svc1" style="whiteSpace=wrap;html=1;aspect=fixed;" parent="1" vertex="1">
          <mxGeometry x="50" y="450" width="80" height="80" as="geometry" />
        </mxCell>
        <mxCell id="I1Czxmr3QRIqjWYr_f1q-30" value="svc1" style="whiteSpace=wrap;html=1;aspect=fixed;" parent="1" vertex="1">
          <mxGeometry x="50" y="560" width="80" height="80" as="geometry" />
        </mxCell>
        <mxCell id="I1Czxmr3QRIqjWYr_f1q-31" value="DNS" style="text;strokeColor=none;fillColor=none;spacingLeft=4;spacingRight=4;overflow=hidden;rotatable=0;points=[[0,0.5],[1,0.5]];portConstraint=eastwest;fontSize=12;" parent="1" vertex="1">
          <mxGeometry x="414" y="50" width="70" height="30" as="geometry" />
        </mxCell>
        <mxCell id="I1Czxmr3QRIqjWYr_f1q-32" value="私钥" style="text;html=1;strokeColor=none;fillColor=none;align=center;verticalAlign=middle;whiteSpace=wrap;rounded=0;" parent="1" vertex="1">
          <mxGeometry x="572" y="113" width="60" height="30" as="geometry" />
        </mxCell>
        <mxCell id="I1Czxmr3QRIqjWYr_f1q-33" value="公钥" style="text;html=1;strokeColor=none;fillColor=none;align=center;verticalAlign=middle;whiteSpace=wrap;rounded=0;" parent="1" vertex="1">
          <mxGeometry x="160" y="110" width="60" height="30" as="geometry" />
        </mxCell>
        <mxCell id="I1Czxmr3QRIqjWYr_f1q-34" value="&lt;h1&gt;第三方服务&lt;/h1&gt;&lt;p&gt;1. 微信&lt;/p&gt;&lt;p&gt;2.钉钉&lt;/p&gt;&lt;p&gt;3. 短信&lt;/p&gt;&lt;p&gt;&lt;br&gt;&lt;/p&gt;" style="text;html=1;strokeColor=none;fillColor=none;spacing=5;spacingTop=-20;whiteSpace=wrap;overflow=hidden;rounded=0;" parent="1" vertex="1">
          <mxGeometry x="1231" y="534" width="190" height="120" as="geometry" />
        </mxCell>
        <mxCell id="I1Czxmr3QRIqjWYr_f1q-35" value="&lt;h1&gt;Notice&lt;/h1&gt;&lt;p&gt;1. 鉴权（过滤、IP加白）&lt;/p&gt;&lt;p&gt;-&amp;nbsp; openplatform ( rsa,md5,time)&lt;/p&gt;&lt;p&gt;2. 限流/反爆破（根据密钥、token）&lt;/p&gt;&lt;p&gt;-&amp;nbsp; sentinal&lt;/p&gt;&lt;p&gt;3.可靠性问题&lt;/p&gt;&lt;p&gt;-&amp;nbsp; 不考虑&lt;/p&gt;&lt;p&gt;4. 流传输问题&lt;/p&gt;&lt;p&gt;- 没问题&lt;/p&gt;&lt;p&gt;5. 通用性问题&lt;/p&gt;&lt;p&gt;&amp;nbsp; - 标准化&lt;/p&gt;&lt;p&gt;&amp;nbsp; - 非标&amp;nbsp; √&lt;/p&gt;&lt;p&gt;6.网络位置？5网段&lt;/p&gt;&lt;p&gt;7。公众号是否多个？&lt;/p&gt;&lt;p&gt;8、回调是怎么处理？是回调地址还是定时拉？&lt;/p&gt;&lt;p&gt;&lt;br&gt;&lt;/p&gt;&lt;p&gt;&lt;br&gt;&lt;/p&gt;" style="text;html=1;strokeColor=none;fillColor=none;spacing=5;spacingTop=-20;whiteSpace=wrap;overflow=hidden;rounded=0;" parent="1" vertex="1">
          <mxGeometry x="920" y="336" width="257" height="447" as="geometry" />
        </mxCell>
        <mxCell id="I1Czxmr3QRIqjWYr_f1q-36" value="Mq" style="rounded=0;whiteSpace=wrap;html=1;" parent="1" vertex="1">
          <mxGeometry x="42" y="725" width="120" height="60" as="geometry" />
        </mxCell>
        <mxCell id="I1Czxmr3QRIqjWYr_f1q-69" style="edgeStyle=orthogonalEdgeStyle;rounded=0;orthogonalLoop=1;jettySize=auto;html=1;entryX=1;entryY=0.5;entryDx=0;entryDy=0;curved=1;exitX=0.5;exitY=1;exitDx=0;exitDy=0;" parent="1" source="I1Czxmr3QRIqjWYr_f1q-39" target="I1Czxmr3QRIqjWYr_f1q-22" edge="1">
          <mxGeometry relative="1" as="geometry" />
        </mxCell>
        <mxCell id="I1Czxmr3QRIqjWYr_f1q-70" value="回调callback" style="edgeLabel;html=1;align=center;verticalAlign=middle;resizable=0;points=[];" parent="I1Czxmr3QRIqjWYr_f1q-69" vertex="1" connectable="0">
          <mxGeometry x="0.1447" y="-8" relative="1" as="geometry">
            <mxPoint as="offset" />
          </mxGeometry>
        </mxCell>
        <mxCell id="I1Czxmr3QRIqjWYr_f1q-39" value="第三方服务" style="rounded=0;whiteSpace=wrap;html=1;" parent="1" vertex="1">
          <mxGeometry x="1174" y="96" width="120" height="70" as="geometry" />
        </mxCell>
        <mxCell id="I1Czxmr3QRIqjWYr_f1q-40" style="edgeStyle=orthogonalEdgeStyle;curved=1;rounded=0;orthogonalLoop=1;jettySize=auto;html=1;exitX=0;exitY=0.5;exitDx=0;exitDy=0;entryX=1;entryY=0.5;entryDx=0;entryDy=0;dashed=1;" parent="1" source="I1Czxmr3QRIqjWYr_f1q-41" target="I1Czxmr3QRIqjWYr_f1q-36" edge="1">
          <mxGeometry relative="1" as="geometry" />
        </mxCell>
        <mxCell id="I1Czxmr3QRIqjWYr_f1q-41" value="Middle_SVC_Client" style="rounded=0;whiteSpace=wrap;html=1;" parent="1" vertex="1">
          <mxGeometry x="208" y="725" width="120" height="60" as="geometry" />
        </mxCell>
        <mxCell id="I1Czxmr3QRIqjWYr_f1q-42" value="&lt;h1 style=&quot;text-align: center;&quot;&gt;结构&lt;/h1&gt;&lt;h1&gt;&lt;div style=&quot;font-size: 12px; font-weight: 400;&quot;&gt;1. 工程名&lt;/div&gt;&lt;div style=&quot;font-size: 12px; font-weight: 400;&quot;&gt;&lt;span data-darkreader-inline-bgcolor=&quot;&quot; style=&quot;background-color: initial; --darkreader-inline-bgcolor: initial;&quot;&gt;2. 业务标识字段类型&lt;/span&gt;&lt;/div&gt;&lt;div style=&quot;font-size: 12px; font-weight: 400;&quot;&gt;&lt;span data-darkreader-inline-bgcolor=&quot;&quot; style=&quot;background-color: initial; --darkreader-inline-bgcolor: initial;&quot;&gt;3. 消息标识 id&amp;nbsp; &amp;nbsp; &amp;nbsp;&amp;nbsp;&lt;/span&gt;&lt;/div&gt;&lt;div style=&quot;font-size: 12px; font-weight: 400;&quot;&gt;&lt;span data-darkreader-inline-bgcolor=&quot;&quot; style=&quot;background-color: initial; --darkreader-inline-bgcolor: initial;&quot;&gt;4. json 串(内容)&lt;/span&gt;&lt;/div&gt;&lt;div style=&quot;font-size: 12px; font-weight: 400;&quot;&gt;&lt;span data-darkreader-inline-bgcolor=&quot;&quot; style=&quot;background-color: initial; --darkreader-inline-bgcolor: initial;&quot;&gt;5. openplatform 加密字段&amp;nbsp;&lt;/span&gt;&lt;/div&gt;&lt;/h1&gt;" style="text;html=1;strokeColor=none;fillColor=none;spacing=5;spacingTop=-20;whiteSpace=wrap;overflow=hidden;rounded=0;" parent="1" vertex="1">
          <mxGeometry x="1231" y="340" width="215" height="158" as="geometry" />
        </mxCell>
        <mxCell id="I1Czxmr3QRIqjWYr_f1q-43" value="wechat-api" style="rounded=1;whiteSpace=wrap;html=1;" parent="1" vertex="1">
          <mxGeometry x="397" y="1105" width="120" height="60" as="geometry" />
        </mxCell>
        <mxCell id="I1Czxmr3QRIqjWYr_f1q-44" value="DingTalk-api" style="rounded=1;whiteSpace=wrap;html=1;" parent="1" vertex="1">
          <mxGeometry x="397" y="1190" width="120" height="60" as="geometry" />
        </mxCell>
        <mxCell id="I1Czxmr3QRIqjWYr_f1q-45" value="SMS-api" style="rounded=1;whiteSpace=wrap;html=1;" parent="1" vertex="1">
          <mxGeometry x="397" y="1280" width="120" height="60" as="geometry" />
        </mxCell>
        <mxCell id="I1Czxmr3QRIqjWYr_f1q-46" value="&lt;span style=&quot;text-align: left;&quot;&gt;open-platform&amp;nbsp;&lt;/span&gt;" style="rounded=1;whiteSpace=wrap;html=1;" parent="1" vertex="1">
          <mxGeometry x="102" y="1213" width="120" height="60" as="geometry" />
        </mxCell>
        <mxCell id="I1Czxmr3QRIqjWYr_f1q-47" value="DB" style="shape=cylinder3;whiteSpace=wrap;html=1;boundedLbl=1;backgroundOutline=1;size=15;" parent="1" vertex="1">
          <mxGeometry x="132" y="1364" width="60" height="80" as="geometry" />
        </mxCell>
        <mxCell id="I1Czxmr3QRIqjWYr_f1q-48" style="edgeStyle=orthogonalEdgeStyle;curved=1;rounded=0;orthogonalLoop=1;jettySize=auto;html=1;entryX=0.5;entryY=0;entryDx=0;entryDy=0;entryPerimeter=0;exitX=0.5;exitY=1;exitDx=0;exitDy=0;" parent="1" source="I1Czxmr3QRIqjWYr_f1q-46" target="I1Czxmr3QRIqjWYr_f1q-47" edge="1">
          <mxGeometry relative="1" as="geometry">
            <mxPoint x="148" y="1325" as="sourcePoint" />
          </mxGeometry>
        </mxCell>
        <mxCell id="I1Czxmr3QRIqjWYr_f1q-49" value="鉴权" style="text;html=1;strokeColor=none;fillColor=none;align=center;verticalAlign=middle;whiteSpace=wrap;rounded=0;" parent="1" vertex="1">
          <mxGeometry x="78" y="1143" width="60" height="30" as="geometry" />
        </mxCell>
        <mxCell id="I1Czxmr3QRIqjWYr_f1q-50" style="edgeStyle=orthogonalEdgeStyle;curved=1;rounded=0;orthogonalLoop=1;jettySize=auto;html=1;" parent="1" source="I1Czxmr3QRIqjWYr_f1q-52" target="I1Czxmr3QRIqjWYr_f1q-11" edge="1">
          <mxGeometry relative="1" as="geometry" />
        </mxCell>
        <mxCell id="I1Czxmr3QRIqjWYr_f1q-51" value="http请求" style="edgeLabel;html=1;align=center;verticalAlign=middle;resizable=0;points=[];" parent="I1Czxmr3QRIqjWYr_f1q-50" vertex="1" connectable="0">
          <mxGeometry x="-0.2357" y="-15" relative="1" as="geometry">
            <mxPoint as="offset" />
          </mxGeometry>
        </mxCell>
        <mxCell id="I1Czxmr3QRIqjWYr_f1q-52" value="业务系统" style="rounded=1;whiteSpace=wrap;html=1;" parent="1" vertex="1">
          <mxGeometry x="-198" y="1186" width="120" height="60" as="geometry" />
        </mxCell>
        <mxCell id="I1Czxmr3QRIqjWYr_f1q-53" value="email-api" style="rounded=1;whiteSpace=wrap;html=1;" parent="1" vertex="1">
          <mxGeometry x="397" y="1371" width="120" height="60" as="geometry" />
        </mxCell>
        <mxCell id="I1Czxmr3QRIqjWYr_f1q-54" value="..." style="rounded=1;whiteSpace=wrap;html=1;" parent="1" vertex="1">
          <mxGeometry x="397" y="1456" width="120" height="60" as="geometry" />
        </mxCell>
        <mxCell id="I1Czxmr3QRIqjWYr_f1q-55" value="三方API" style="text;html=1;strokeColor=none;fillColor=none;align=center;verticalAlign=middle;whiteSpace=wrap;rounded=0;" parent="1" vertex="1">
          <mxGeometry x="422" y="1059" width="60" height="30" as="geometry" />
        </mxCell>
        <mxCell id="I1Czxmr3QRIqjWYr_f1q-58" value="消息callback" style="edgeStyle=orthogonalEdgeStyle;curved=1;rounded=0;orthogonalLoop=1;jettySize=auto;html=1;exitX=0.5;exitY=1;exitDx=0;exitDy=0;entryX=1;entryY=0.912;entryDx=0;entryDy=0;entryPerimeter=0;" parent="1" source="I1Czxmr3QRIqjWYr_f1q-59" target="I1Czxmr3QRIqjWYr_f1q-4" edge="1">
          <mxGeometry x="-0.2866" y="-24" relative="1" as="geometry">
            <mxPoint x="561" y="1484" as="targetPoint" />
            <mxPoint as="offset" />
          </mxGeometry>
        </mxCell>
        <mxCell id="I1Czxmr3QRIqjWYr_f1q-59" value="三方服务" style="rounded=1;whiteSpace=wrap;html=1;" parent="1" vertex="1">
          <mxGeometry x="671" y="1152" width="120" height="196" as="geometry" />
        </mxCell>
        <mxCell id="I1Czxmr3QRIqjWYr_f1q-60" value="监听对应业务标识的topic消息" style="edgeStyle=orthogonalEdgeStyle;curved=1;rounded=0;orthogonalLoop=1;jettySize=auto;html=1;entryX=0.25;entryY=1;entryDx=0;entryDy=0;dashed=1;" parent="1" source="I1Czxmr3QRIqjWYr_f1q-61" target="I1Czxmr3QRIqjWYr_f1q-52" edge="1">
          <mxGeometry relative="1" as="geometry" />
        </mxCell>
        <mxCell id="I1Czxmr3QRIqjWYr_f1q-61" value="MQ" style="rounded=1;whiteSpace=wrap;html=1;" parent="1" vertex="1">
          <mxGeometry x="-253" y="1345" width="120" height="60" as="geometry" />
        </mxCell>
        <mxCell id="I1Czxmr3QRIqjWYr_f1q-62" style="edgeStyle=orthogonalEdgeStyle;curved=1;rounded=0;orthogonalLoop=1;jettySize=auto;html=1;entryX=0.445;entryY=1.004;entryDx=0;entryDy=0;entryPerimeter=0;dashed=1;" parent="1" source="I1Czxmr3QRIqjWYr_f1q-63" target="I1Czxmr3QRIqjWYr_f1q-61" edge="1">
          <mxGeometry relative="1" as="geometry" />
        </mxCell>
        <mxCell id="I1Czxmr3QRIqjWYr_f1q-63" value="middle-service-client" style="rounded=1;whiteSpace=wrap;html=1;" parent="1" vertex="1">
          <mxGeometry x="-284" y="1461" width="120" height="60" as="geometry" />
        </mxCell>
        <mxCell id="I1Czxmr3QRIqjWYr_f1q-64" value="内网系统" style="text;html=1;strokeColor=none;fillColor=none;align=center;verticalAlign=middle;whiteSpace=wrap;rounded=0;" parent="1" vertex="1">
          <mxGeometry x="-289" y="1113" width="60" height="30" as="geometry" />
        </mxCell>
        <mxCell id="I1Czxmr3QRIqjWYr_f1q-65" value="middle-service" style="text;html=1;strokeColor=none;fillColor=none;align=center;verticalAlign=middle;whiteSpace=wrap;rounded=0;" parent="1" vertex="1">
          <mxGeometry x="42" y="1036" width="109" height="30" as="geometry" />
        </mxCell>
        <mxCell id="I1Czxmr3QRIqjWYr_f1q-66" value="客户内网" style="text;html=1;strokeColor=none;fillColor=none;align=center;verticalAlign=middle;whiteSpace=wrap;rounded=0;" parent="1" vertex="1">
          <mxGeometry x="29" y="44" width="60" height="30" as="geometry" />
        </mxCell>
        <mxCell id="I1Czxmr3QRIqjWYr_f1q-67" value="下沙机房" style="text;html=1;strokeColor=none;fillColor=none;align=center;verticalAlign=middle;whiteSpace=wrap;rounded=0;" parent="1" vertex="1">
          <mxGeometry x="660" y="31" width="60" height="30" as="geometry" />
        </mxCell>
        <mxCell id="I1Czxmr3QRIqjWYr_f1q-72" value="&lt;h1&gt;middle-service&lt;/h1&gt;&lt;p&gt;middle-api&lt;/p&gt;&lt;p&gt;&lt;span style=&quot;white-space: pre;&quot;&gt; &lt;/span&gt;sdk接口暴露&lt;br&gt;&lt;/p&gt;&lt;p&gt;middle-core&lt;/p&gt;&lt;p&gt;&lt;span style=&quot;white-space: pre;&quot;&gt; &lt;/span&gt;鉴权、参数组装、回调处理&lt;br&gt;&lt;/p&gt;&lt;p&gt;middle-common&lt;/p&gt;&lt;p&gt;&lt;span style=&quot;white-space: pre;&quot;&gt; &lt;/span&gt;token生成、校验、消息加解密、业务标识解析等&lt;br&gt;&lt;/p&gt;" style="text;html=1;strokeColor=none;fillColor=none;spacing=5;spacingTop=-20;whiteSpace=wrap;overflow=hidden;rounded=0;" parent="1" vertex="1">
          <mxGeometry x="1" y="1651" width="189" height="216" as="geometry" />
        </mxCell>
        <mxCell id="I1Czxmr3QRIqjWYr_f1q-73" value="&lt;h1&gt;任务&lt;/h1&gt;&lt;p&gt;人员：前端、后端、测试、运维&lt;/p&gt;&lt;p&gt;任务拆解&lt;/p&gt;&lt;p&gt;时间（要求：）&lt;/p&gt;&lt;p&gt;补充网络拓扑图&lt;/p&gt;&lt;p&gt;相关业务改造点，谁来弄？&lt;/p&gt;" style="text;html=1;strokeColor=none;fillColor=none;spacing=5;spacingTop=-20;whiteSpace=wrap;overflow=hidden;rounded=0;" parent="1" vertex="1">
          <mxGeometry x="319" y="1651" width="190" height="188" as="geometry" />
        </mxCell>
        <mxCell id="I1Czxmr3QRIqjWYr_f1q-77" value="访问websaas.com" style="edgeStyle=orthogonalEdgeStyle;rounded=0;orthogonalLoop=1;jettySize=auto;html=1;curved=1;" parent="1" source="I1Czxmr3QRIqjWYr_f1q-74" target="I1Czxmr3QRIqjWYr_f1q-75" edge="1">
          <mxGeometry relative="1" as="geometry" />
        </mxCell>
        <mxCell id="I1Czxmr3QRIqjWYr_f1q-74" value="业务系统" style="rounded=1;whiteSpace=wrap;html=1;" parent="1" vertex="1">
          <mxGeometry x="1030" y="1150" width="120" height="60" as="geometry" />
        </mxCell>
        <mxCell id="I1Czxmr3QRIqjWYr_f1q-82" style="edgeStyle=orthogonalEdgeStyle;curved=1;rounded=0;orthogonalLoop=1;jettySize=auto;html=1;entryX=0.007;entryY=0.347;entryDx=0;entryDy=0;entryPerimeter=0;" parent="1" source="I1Czxmr3QRIqjWYr_f1q-75" target="I1Czxmr3QRIqjWYr_f1q-80" edge="1">
          <mxGeometry relative="1" as="geometry" />
        </mxCell>
        <mxCell id="I1Czxmr3QRIqjWYr_f1q-76" value="middle_service" style="rounded=1;whiteSpace=wrap;html=1;" parent="1" vertex="1">
          <mxGeometry x="1545" y="1200" width="120" height="60" as="geometry" />
        </mxCell>
        <mxCell id="I1Czxmr3QRIqjWYr_f1q-79" value="内网：线上rancher websaas.cn" style="text;html=1;strokeColor=none;fillColor=none;align=center;verticalAlign=middle;whiteSpace=wrap;rounded=0;" parent="1" vertex="1">
          <mxGeometry x="1011" y="1084" width="205" height="30" as="geometry" />
        </mxCell>
        <mxCell id="I1Czxmr3QRIqjWYr_f1q-81" value="国信：rancher" style="text;html=1;strokeColor=none;fillColor=none;align=center;verticalAlign=middle;whiteSpace=wrap;rounded=0;" parent="1" vertex="1">
          <mxGeometry x="1490" y="1080" width="134" height="30" as="geometry" />
        </mxCell>
        <mxCell id="I1Czxmr3QRIqjWYr_f1q-84" value="区分不同三方的IP，和密钥放一起" style="text;html=1;strokeColor=none;fillColor=none;align=center;verticalAlign=middle;whiteSpace=wrap;rounded=0;" parent="1" vertex="1">
          <mxGeometry x="1512" y="1379" width="193" height="30" as="geometry" />
        </mxCell>
        <mxCell id="I1Czxmr3QRIqjWYr_f1q-86" value="网络拓扑图" style="text;html=1;strokeColor=none;fillColor=none;align=center;verticalAlign=middle;whiteSpace=wrap;rounded=0;" parent="1" vertex="1">
          <mxGeometry x="922" y="986" width="113" height="30" as="geometry" />
        </mxCell>
        <mxCell id="I1Czxmr3QRIqjWYr_f1q-90" style="edgeStyle=orthogonalEdgeStyle;curved=1;rounded=0;orthogonalLoop=1;jettySize=auto;html=1;entryX=0.5;entryY=1;entryDx=0;entryDy=0;" parent="1" source="I1Czxmr3QRIqjWYr_f1q-87" target="I1Czxmr3QRIqjWYr_f1q-63" edge="1">
          <mxGeometry relative="1" as="geometry" />
        </mxCell>
        <mxCell id="I1Czxmr3QRIqjWYr_f1q-87" value="open-platform" style="rounded=1;whiteSpace=wrap;html=1;" parent="1" vertex="1">
          <mxGeometry x="-146" y="1568" width="107" height="45" as="geometry" />
        </mxCell>
        <mxCell id="3Cpc0HWWFPvoYlna3Dm2-1" value="wechat" style="rounded=1;whiteSpace=wrap;html=1;" vertex="1" parent="1">
          <mxGeometry x="932" y="1658" width="120" height="60" as="geometry" />
        </mxCell>
        <mxCell id="3Cpc0HWWFPvoYlna3Dm2-2" value="DingTalk" style="rounded=1;whiteSpace=wrap;html=1;" vertex="1" parent="1">
          <mxGeometry x="1108.5" y="1658" width="120" height="60" as="geometry" />
        </mxCell>
        <mxCell id="3Cpc0HWWFPvoYlna3Dm2-3" value="message" style="rounded=1;whiteSpace=wrap;html=1;" vertex="1" parent="1">
          <mxGeometry x="1282" y="1658" width="120" height="60" as="geometry" />
        </mxCell>
        <mxCell id="3Cpc0HWWFPvoYlna3Dm2-4" value="玄武盾" style="rounded=1;whiteSpace=wrap;html=1;" vertex="1" parent="1">
          <mxGeometry x="904" y="1816" width="519" height="60" as="geometry" />
        </mxCell>
        <mxCell id="3Cpc0HWWFPvoYlna3Dm2-6" value="接出服务" style="rounded=1;whiteSpace=wrap;html=1;" vertex="1" parent="1">
          <mxGeometry x="904" y="1924" width="519" height="60" as="geometry" />
        </mxCell>
        <mxCell id="3Cpc0HWWFPvoYlna3Dm2-14" value="callback-client" style="rounded=1;whiteSpace=wrap;html=1;" vertex="1" parent="1">
          <mxGeometry x="932" y="1733" width="88" height="28" as="geometry" />
        </mxCell>
        <mxCell id="3Cpc0HWWFPvoYlna3Dm2-16" value="MQ" style="rounded=1;whiteSpace=wrap;html=1;" vertex="1" parent="1">
          <mxGeometry x="1108.5" y="1733" width="90.5" height="28" as="geometry" />
        </mxCell>
        <mxCell id="3Cpc0HWWFPvoYlna3Dm2-24" style="edgeStyle=orthogonalEdgeStyle;rounded=0;orthogonalLoop=1;jettySize=auto;html=1;curved=1;fillColor=#FF0000;strokeColor=#FF0000;" edge="1" parent="1" source="3Cpc0HWWFPvoYlna3Dm2-25" target="3Cpc0HWWFPvoYlna3Dm2-32">
          <mxGeometry relative="1" as="geometry" />
        </mxCell>
        <mxCell id="3Cpc0HWWFPvoYlna3Dm2-25" value="内网业务1" style="rounded=1;whiteSpace=wrap;html=1;" vertex="1" parent="1">
          <mxGeometry x="969" y="2086" width="120" height="60" as="geometry" />
        </mxCell>
        <mxCell id="3Cpc0HWWFPvoYlna3Dm2-26" value="" style="edgeStyle=orthogonalEdgeStyle;rounded=0;orthogonalLoop=1;jettySize=auto;html=1;curved=1;fillColor=#FF0000;strokeColor=#FF0000;" edge="1" parent="1" source="3Cpc0HWWFPvoYlna3Dm2-27" target="3Cpc0HWWFPvoYlna3Dm2-32">
          <mxGeometry relative="1" as="geometry" />
        </mxCell>
        <mxCell id="3Cpc0HWWFPvoYlna3Dm2-27" value="内网业务1" style="rounded=1;whiteSpace=wrap;html=1;" vertex="1" parent="1">
          <mxGeometry x="1145.5" y="2086" width="120" height="60" as="geometry" />
        </mxCell>
        <mxCell id="3Cpc0HWWFPvoYlna3Dm2-28" style="edgeStyle=orthogonalEdgeStyle;rounded=0;orthogonalLoop=1;jettySize=auto;html=1;entryX=0.5;entryY=0;entryDx=0;entryDy=0;curved=1;fillColor=#FF0000;strokeColor=#FF0000;" edge="1" parent="1" source="3Cpc0HWWFPvoYlna3Dm2-29" target="3Cpc0HWWFPvoYlna3Dm2-32">
          <mxGeometry relative="1" as="geometry" />
        </mxCell>
        <mxCell id="3Cpc0HWWFPvoYlna3Dm2-29" value="内网业务1" style="rounded=1;whiteSpace=wrap;html=1;" vertex="1" parent="1">
          <mxGeometry x="1319" y="2086" width="120" height="60" as="geometry" />
        </mxCell>
        <mxCell id="3Cpc0HWWFPvoYlna3Dm2-30" value="" style="edgeStyle=orthogonalEdgeStyle;rounded=0;orthogonalLoop=1;jettySize=auto;html=1;fillColor=#FF0000;strokeColor=#FF0000;exitX=0.75;exitY=1;exitDx=0;exitDy=0;curved=1;entryX=0.75;entryY=0;entryDx=0;entryDy=0;" edge="1" parent="1" source="3Cpc0HWWFPvoYlna3Dm2-32" target="3Cpc0HWWFPvoYlna3Dm2-34">
          <mxGeometry relative="1" as="geometry" />
        </mxCell>
        <mxCell id="3Cpc0HWWFPvoYlna3Dm2-31" style="edgeStyle=orthogonalEdgeStyle;curved=1;rounded=0;orthogonalLoop=1;jettySize=auto;html=1;exitX=0.25;exitY=0;exitDx=0;exitDy=0;entryX=0.5;entryY=1;entryDx=0;entryDy=0;strokeColor=#3333FF;fillColor=#FF0000;" edge="1" parent="1" source="3Cpc0HWWFPvoYlna3Dm2-32" target="3Cpc0HWWFPvoYlna3Dm2-36">
          <mxGeometry relative="1" as="geometry" />
        </mxCell>
        <mxCell id="3Cpc0HWWFPvoYlna3Dm2-32" value="玄武盾" style="rounded=1;whiteSpace=wrap;html=1;" vertex="1" parent="1">
          <mxGeometry x="957" y="2242" width="493" height="60" as="geometry" />
        </mxCell>
        <mxCell id="3Cpc0HWWFPvoYlna3Dm2-33" style="edgeStyle=orthogonalEdgeStyle;curved=1;rounded=0;orthogonalLoop=1;jettySize=auto;html=1;exitX=0.25;exitY=0;exitDx=0;exitDy=0;entryX=0.25;entryY=1;entryDx=0;entryDy=0;strokeColor=#3333FF;fillColor=#FF0000;" edge="1" parent="1" source="3Cpc0HWWFPvoYlna3Dm2-34" target="3Cpc0HWWFPvoYlna3Dm2-32">
          <mxGeometry relative="1" as="geometry" />
        </mxCell>
        <mxCell id="3Cpc0HWWFPvoYlna3Dm2-34" value="接出服务" style="rounded=1;whiteSpace=wrap;html=1;" vertex="1" parent="1">
          <mxGeometry x="1093.5" y="2343" width="220" height="60" as="geometry" />
        </mxCell>
        <mxCell id="3Cpc0HWWFPvoYlna3Dm2-35" style="edgeStyle=orthogonalEdgeStyle;curved=1;rounded=0;orthogonalLoop=1;jettySize=auto;html=1;exitX=0.25;exitY=0;exitDx=0;exitDy=0;entryX=0.75;entryY=1;entryDx=0;entryDy=0;strokeColor=#3333FF;fillColor=#FF0000;" edge="1" parent="1" source="3Cpc0HWWFPvoYlna3Dm2-36" target="3Cpc0HWWFPvoYlna3Dm2-40">
          <mxGeometry relative="1" as="geometry" />
        </mxCell>
        <mxCell id="3Cpc0HWWFPvoYlna3Dm2-36" value="callback-client" style="rounded=1;whiteSpace=wrap;html=1;" vertex="1" parent="1">
          <mxGeometry x="880" y="2170" width="88" height="28" as="geometry" />
        </mxCell>
        <mxCell id="3Cpc0HWWFPvoYlna3Dm2-37" style="edgeStyle=orthogonalEdgeStyle;curved=1;rounded=0;orthogonalLoop=1;jettySize=auto;html=1;entryX=0.75;entryY=0;entryDx=0;entryDy=0;strokeColor=#3333FF;fillColor=#FF0000;dashed=1;" edge="1" parent="1" source="3Cpc0HWWFPvoYlna3Dm2-40" target="3Cpc0HWWFPvoYlna3Dm2-25">
          <mxGeometry relative="1" as="geometry" />
        </mxCell>
        <mxCell id="3Cpc0HWWFPvoYlna3Dm2-38" style="edgeStyle=orthogonalEdgeStyle;curved=1;rounded=0;orthogonalLoop=1;jettySize=auto;html=1;entryX=0.5;entryY=0;entryDx=0;entryDy=0;strokeColor=#3333FF;fillColor=#FF0000;dashed=1;" edge="1" parent="1" source="3Cpc0HWWFPvoYlna3Dm2-40" target="3Cpc0HWWFPvoYlna3Dm2-27">
          <mxGeometry relative="1" as="geometry" />
        </mxCell>
        <mxCell id="3Cpc0HWWFPvoYlna3Dm2-39" style="edgeStyle=orthogonalEdgeStyle;curved=1;rounded=0;orthogonalLoop=1;jettySize=auto;html=1;entryX=0.5;entryY=0;entryDx=0;entryDy=0;strokeColor=#3333FF;fillColor=#FF0000;dashed=1;" edge="1" parent="1" source="3Cpc0HWWFPvoYlna3Dm2-40" target="3Cpc0HWWFPvoYlna3Dm2-29">
          <mxGeometry relative="1" as="geometry" />
        </mxCell>
        <mxCell id="3Cpc0HWWFPvoYlna3Dm2-40" value="MQ" style="rounded=1;whiteSpace=wrap;html=1;" vertex="1" parent="1">
          <mxGeometry x="880" y="2045" width="85" height="28" as="geometry" />
        </mxCell>
        <mxCell id="3Cpc0HWWFPvoYlna3Dm2-41" value="消息监听" style="text;html=1;strokeColor=none;fillColor=none;align=center;verticalAlign=middle;whiteSpace=wrap;rounded=0;" vertex="1" parent="1">
          <mxGeometry x="978" y="2033" width="72" height="30" as="geometry" />
        </mxCell>
        <mxCell id="3Cpc0HWWFPvoYlna3Dm2-42" value="消息投递" style="text;html=1;strokeColor=none;fillColor=none;align=center;verticalAlign=middle;whiteSpace=wrap;rounded=0;" vertex="1" parent="1">
          <mxGeometry x="882" y="2129" width="60" height="30" as="geometry" />
        </mxCell>
        <mxCell id="3Cpc0HWWFPvoYlna3Dm2-44" value="内网服务" style="text;html=1;strokeColor=none;fillColor=none;align=center;verticalAlign=middle;whiteSpace=wrap;rounded=0;" vertex="1" parent="1">
          <mxGeometry x="1308.5" y="1732" width="60" height="30" as="geometry" />
        </mxCell>
        <mxCell id="3Cpc0HWWFPvoYlna3Dm2-45" value="" style="shape=doubleArrow;direction=south;whiteSpace=wrap;html=1;" vertex="1" parent="1">
          <mxGeometry x="1261" y="1776" width="60" height="35" as="geometry" />
        </mxCell>
        <mxCell id="3Cpc0HWWFPvoYlna3Dm2-46" value="" style="shape=doubleArrow;direction=south;whiteSpace=wrap;html=1;" vertex="1" parent="1">
          <mxGeometry x="992" y="1774" width="60" height="35" as="geometry" />
        </mxCell>
        <mxCell id="3Cpc0HWWFPvoYlna3Dm2-47" value="" style="shape=doubleArrow;direction=south;whiteSpace=wrap;html=1;" vertex="1" parent="1">
          <mxGeometry x="1255" y="1885" width="60" height="35" as="geometry" />
        </mxCell>
        <mxCell id="3Cpc0HWWFPvoYlna3Dm2-48" value="" style="shape=doubleArrow;direction=south;whiteSpace=wrap;html=1;" vertex="1" parent="1">
          <mxGeometry x="986" y="1883" width="60" height="35" as="geometry" />
        </mxCell>
        <mxCell id="3Cpc0HWWFPvoYlna3Dm2-49" value="&lt;font style=&quot;--darkreader-inline-color:#3777e6;&quot; data-darkreader-inline-color=&quot;&quot; color=&quot;#3333ff&quot;&gt;鉴权&lt;/font&gt;" style="text;html=1;strokeColor=none;fillColor=none;align=center;verticalAlign=middle;whiteSpace=wrap;rounded=0;" vertex="1" parent="1">
          <mxGeometry x="1001" y="2198" width="60" height="30" as="geometry" />
        </mxCell>
        <mxCell id="3Cpc0HWWFPvoYlna3Dm2-50" value="&lt;font style=&quot;--darkreader-inline-color:#e61717;&quot; data-darkreader-inline-color=&quot;&quot; color=&quot;#ff0000&quot;&gt;鉴权&lt;/font&gt;" style="text;html=1;strokeColor=none;fillColor=none;align=center;verticalAlign=middle;whiteSpace=wrap;rounded=0;" vertex="1" parent="1">
          <mxGeometry x="1286" y="2313" width="60" height="30" as="geometry" />
        </mxCell>
      </root>
    </mxGraphModel>
  </diagram>
</mxfile>
